<svg width="1440" height="577" viewBox="0 0 1440 577" fill="none" xmlns="http://www.w3.org/2000/svg">
<path d="M1440 545V353H1344V257H1248V545H1152V481L1056 481V353H960V481H864V417L768 417V513H672V577H576V449H480V481H384V353H288V577H192V449L96 449V321H0V257H96H192L288 257H384H480H576H672L768 257H864H960H1056H1152L1248 257H1344H1440V545Z" fill="#EBEBEB" fill-opacity="0.5"/>
<path d="M0 -31V161H96V257H192V-31H288V33H384V161H480V33H576V97H672V1H768V-63H864V65H960V33H1056V161H1152V-63H1248V65H1344V193H1440V257H1344H1248H1152H1056H960H864H768H672H576H480H384H288H192H96H0V-31Z" fill="#EBEBEB" fill-opacity="0.5"/>
</svg>
