<svg width="1440" height="1012" viewBox="0 0 1440 1012" fill="none" xmlns="http://www.w3.org/2000/svg">
<path d="M0 1012V724H96V884H192H288V756H384V724H480V820H576V756H672V852H768V916H864V820H960V884H1056V948H1152V788H1248V852H1344H1440V692H1344H1248H1152H1056H960H864H768H672H576H480H384H288H192H96H0V1012Z" fill="#2F3760"/>
<rect y="203" width="1440" height="501" fill="#2F3760"/>
<path d="M0 -49V111H96V47H192V175H288V47H384V-81H480V-17H576V15H672V47H768V143H864V-113H960V47H1056V175H1152V15H1248V47H1344V-113H1440V207H1344H1248H1152H1056H960H864H768H672H576H480H384H288H192H96H0V-49Z" fill="#2F3760"/>
</svg>
