<svg width="1440" height="271" viewBox="0 0 1440 271" fill="none" xmlns="http://www.w3.org/2000/svg">
<path d="M-1404 47.2898L-1385.04 52.5829C-1366.08 58.2755 -1328.95 68.2626 -1289.45 95.2277C-1252.32 122.193 -1214.4 164.138 -1176.87 169.831C-1138.56 175.124 -1099.85 143.166 -1062.32 137.872C-1024.8 132.18 -987.275 154.151 -949.75 164.438C-911.04 175.124 -872.725 175.124 -835.2 153.852C-797.28 132.18 -760.15 90.2341 -720.65 100.521C-683.52 111.207 -645.6 175.124 -608.075 169.831C-569.76 164.138 -531.05 90.2341 -493.525 73.9552C-456 58.2755 -418.475 100.221 -380.95 132.479C-342.24 164.138 -303.925 186.11 -266.4 185.81C-228.48 186.11 -191.35 164.138 -151.85 132.479C-114.72 100.221 -76.8 58.2755 -39.275 68.5622C-0.959984 79.2484 37.75 143.166 75.275 164.438C112.8 186.11 150.325 164.138 187.85 153.852C226.56 143.166 264.875 143.166 302.4 153.852C340.32 164.138 377.45 186.11 416.95 153.852C454.08 122.193 492 36.304 529.525 10.038C567.84 -16.6274 606.55 15.3312 644.075 41.9966C681.6 68.2626 719.125 90.2341 756.65 84.5415C795.36 79.2484 833.675 47.2898 871.2 52.5829C909.12 58.2755 946.25 100.221 985.75 143.166C1022.88 186.11 1060.8 228.056 1098.33 217.769C1136.64 207.083 1175.35 143.166 1212.88 95.2277C1250.4 47.2898 1287.93 15.3312 1325.45 15.3312C1364.16 15.3312 1402.48 47.2898 1420.25 63.2691L1440 79.2484V271H1421.04C1402.08 271 1364.95 271 1325.45 271C1288.32 271 1250.4 271 1212.88 271C1174.56 271 1135.85 271 1098.33 271C1060.8 271 1023.28 271 985.75 271C947.04 271 908.725 271 871.2 271C833.28 271 796.15 271 756.65 271C719.52 271 681.6 271 644.075 271C605.76 271 567.05 271 529.525 271C492 271 454.475 271 416.95 271C378.24 271 339.925 271 302.4 271C264.48 271 227.35 271 187.85 271C150.72 271 112.8 271 75.275 271C36.96 271 -1.74998 271 -39.275 271C-76.8 271 -114.325 271 -151.85 271C-190.56 271 -228.875 271 -266.4 271C-304.32 271 -341.45 271 -380.95 271C-418.08 271 -456 271 -493.525 271C-531.84 271 -570.55 271 -608.075 271C-645.6 271 -683.125 271 -720.65 271C-759.36 271 -797.675 271 -835.2 271C-873.12 271 -910.25 271 -949.75 271C-986.88 271 -1024.8 271 -1062.32 271C-1100.64 271 -1139.35 271 -1176.87 271C-1214.4 271 -1251.92 271 -1289.45 271C-1328.16 271 -1366.47 271 -1384.25 271H-1404V47.2898Z" fill="white"/>
</svg>
