  <svg
            width="108"
            height="34"
            viewBox="0 0 108 34"
            fill="none"
            xmlns="http://www.w3.org/2000/svg"
            className="navslant-logo"
          >
            <path
              d="M17.448 16.768C18.664 16.96 19.768 17.456 20.76 18.256C21.784 19.056 22.584 20.048 23.16 21.232C23.768 22.416 24.072 23.68 24.072 25.024C24.072 26.72 23.64 28.256 22.776 29.632C21.912 30.976 20.648 32.048 18.984 32.848C17.352 33.616 15.416 34 13.176 34H0.695984V0.544003H12.696C14.968 0.544003 16.904 0.928003 18.504 1.696C20.104 2.432 21.304 3.44 22.104 4.72C22.904 6 23.304 7.44 23.304 9.04C23.304 11.024 22.76 12.672 21.672 13.984C20.616 15.264 19.208 16.192 17.448 16.768ZM5.06398 14.992H12.408C14.456 14.992 16.04 14.512 17.16 13.552C18.28 12.592 18.84 11.264 18.84 9.568C18.84 7.872 18.28 6.544 17.16 5.584C16.04 4.624 14.424 4.144 12.312 4.144H5.06398V14.992ZM12.792 30.4C14.968 30.4 16.664 29.888 17.88 28.864C19.096 27.84 19.704 26.416 19.704 24.592C19.704 22.736 19.064 21.28 17.784 20.224C16.504 19.136 14.792 18.592 12.648 18.592H5.06398V30.4H12.792Z"
              stroke="#2f3760"
              stroke-width="2"
            />
            <path
              d="M34.5015 4.096V15.28H46.6935V18.88H34.5015V30.4H48.1335V34H30.1335V0.496002H48.1335V4.096H34.5015Z"
              stroke="#2f3760"
              stroke-width="2"
            />
            <path
              d="M75.3349 0.544003V4.096H66.2149V34H61.8469V4.096H52.6789V0.544003H75.3349Z"
              stroke="#2f3760"
              stroke-width="2"
            />
            <path
              d="M100.488 26.56H85.8956L83.2076 34H78.5996L90.6956 0.736004H95.7356L107.784 34H103.176L100.488 26.56ZM99.2396 23.008L93.1916 6.112L87.1436 23.008H99.2396Z"
              stroke="#2f3760"
              stroke-width="2"
            />
          </svg>